<svg xmlns="http://www.w3.org/2000/svg" class="graphdiagram" viewBox="-2012.2844401146237 -1028.5422442217503 3176.0046927927287 1306.3209778093901"><g class="layer relationships"><g class="related-pair"><g class="relationship" transform="translate(-991.2633144235513,-383.3347840801992) rotate(15.654157492871073)"><path class="relationship" d="M 87.07726038220096,-18.872436383985733 L 88.41906504204945,-10.985766601700636 A 1632.9841436782922 1632.9841436782922 0 0 1 586.7991427215624,-18.61533466475354 L 585.1494988212138,-6.729264035565661 L 619.0452123661796,-18.178307806886696 L 589.5485492221434,-38.42545238006667 L 587.8989053217948,-26.539381750878796 A 1640.9841436782922 1640.9841436782922 0 0 0 87.07726038220096,-18.872436383985733" fill="rgb(0, 0, 0)" stroke="rgb(51, 51, 51)" stroke-width="0px"></path><text class="type" text-anchor="middle" baseline-shift="30%" alignment-baseline="alphabetic" x="362.3122817228293" y="-38.11907266770618" font-size="50px" font-family="'Gill Sans', 'Gill Sans MT', Calibri, sans-serif">EDITED</text></g><g class="relationship" transform="translate(-991.2633144235513,-383.3347840801992) rotate(15.654157492871073)"><path class="relationship" d="M 87.07726038220096,18.872436383985743 L 88.41906504204945,10.985766601700647 A 1632.9841436782904 1632.9841436782904 0 0 0 586.7991427215624,18.615334664753558 L 585.1494988212138,6.729264035565677 L 619.0452123661796,18.178307806886714 L 589.5485492221434,38.425452380066695 L 587.8989053217948,26.539381750878814 A 1640.9841436782904 1640.9841436782904 0 0 1 87.07726038220096,18.872436383985743" fill="rgb(0, 0, 0)" stroke="rgb(51, 51, 51)" stroke-width="0px"></path><text class="type" text-anchor="middle" baseline-shift="30%" alignment-baseline="alphabetic" x="362.31228172282925" y="38.119072667706405" font-size="50px" font-family="'Gill Sans', 'Gill Sans MT', Calibri, sans-serif">ASKED</text></g></g><g class="related-pair"><g class="relationship" transform="translate(-392.68027734561844,-765.3523872531183) rotate(78.05593328304464)"><path class="relationship" d="M 116.38476800962664 4 L 433.09440162639993 4 L 433.09440162639993 16 L 465.09440162639993 0 L 433.09440162639993 -16 L 433.09440162639993 -4 L 116.38476800962664 -4 Z" fill="rgb(0, 0, 0)" stroke="rgb(51, 51, 51)" stroke-width="0px"></path><text class="type" text-anchor="middle" baseline-shift="30%" alignment-baseline="alphabetic" x="274.7395848180133" y="0" font-size="50px" font-family="'Gill Sans', 'Gill Sans MT', Calibri, sans-serif">ANSWERS</text></g></g><g class="related-pair"><g class="relationship" transform="translate(-991.2633144235513,-383.3347840801992) rotate(-32.546148800675276)"><path class="relationship" d="M 87.07726038220096,-18.872436383985733 L 88.41906504204945,-10.985766601700636 A 1530.5055043966274 1530.5055043966274 0 0 1 562.651024126871,-17.130173462582064 L 560.9454932581909,-5.2519932797434645 L 594.8946815706672,-16.54148454038159 L 565.493575574671,-36.92714043397973 L 563.788044705991,-25.048960251141132 A 1538.5055043966274 1538.5055043966274 0 0 0 87.07726038220096,-18.872436383985733" fill="rgb(0, 0, 0)" stroke="rgb(51, 51, 51)" stroke-width="0px"></path><text class="type" text-anchor="middle" baseline-shift="30%" alignment-baseline="alphabetic" x="345.1239922574455" y="-36.667331855091334" font-size="50px" font-family="'Gill Sans', 'Gill Sans MT', Calibri, sans-serif">PROVIDED</text></g><g class="relationship" transform="translate(-991.2633144235513,-383.3347840801992) rotate(-32.546148800675276)"><path class="relationship" d="M 87.07726038220096,18.872436383985743 L 88.41906504204945,10.985766601700647 A 1530.5055043966263 1530.5055043966263 0 0 0 562.651024126871,17.13017346258208 L 560.9454932581909,5.2519932797434805 L 594.8946815706672,16.541484540381603 L 565.493575574671,36.927140433979744 L 563.788044705991,25.048960251141146 A 1538.5055043966263 1538.5055043966263 0 0 1 87.07726038220096,18.872436383985743" fill="rgb(0, 0, 0)" stroke="rgb(51, 51, 51)" stroke-width="0px"></path><text class="type" text-anchor="middle" baseline-shift="30%" alignment-baseline="alphabetic" x="345.1239922574454" y="36.66733185509156" font-size="50px" font-family="'Gill Sans', 'Gill Sans MT', Calibri, sans-serif">EDITED</text></g></g><g class="related-pair"><g class="relationship" transform="translate(-269.05907414224805,-180.9556799343025) rotate(-41.381398393176106)"><path class="relationship" d="M 132.23441352194249 4 L 416.9159457729497 4 L 416.9159457729497 16 L 448.9159457729497 0 L 416.9159457729497 -16 L 416.9159457729497 -4 L 132.23441352194249 -4 Z" fill="rgb(0, 0, 0)" stroke="rgb(51, 51, 51)" stroke-width="0px"></path><text class="type" text-anchor="middle" baseline-shift="30%" alignment-baseline="alphabetic" x="274.57517964744613" y="0" font-size="50px" font-family="'Gill Sans', 'Gill Sans MT', Calibri, sans-serif">TAGGED</text></g></g><g class="related-pair"><g class="relationship" transform="translate(126.17137298583984,-529.1702072143561) rotate(44.430410206775726)"><path class="relationship" d="M 77.82921400162226 4 L 387.5899427776052 4 L 387.5899427776052 16 L 419.5899427776052 0 L 387.5899427776052 -16 L 387.5899427776052 -4 L 77.82921400162226 -4 Z" fill="rgb(0, 0, 0)" stroke="rgb(51, 51, 51)" stroke-width="0px"></path><text class="type" text-anchor="middle" baseline-shift="30%" alignment-baseline="alphabetic" x="232.7095783896137" y="0" font-size="50px" font-family="'Gill Sans', 'Gill Sans MT', Calibri, sans-serif">SYNONYM</text></g></g></g><g class="layer nodes"><circle class="node node-id-0" r="117.2344135219425" fill="rgb(255, 255, 255)" stroke="rgb(0, 0, 0)" stroke-width="8px" cx="-269.05907414224805" cy="-180.9556799343025"></circle><circle class="node node-id-1" r="74.00909015790026" fill="rgb(255, 255, 255)" stroke="rgb(0, 0, 0)" stroke-width="8px" cx="-991.2633144235513" cy="-383.3347840801992"></circle><circle class="node node-id-2" r="101.38476800962664" fill="rgb(255, 255, 255)" stroke="rgb(0, 0, 0)" stroke-width="8px" cx="-392.68027734561844" cy="-765.3523872531183"></circle><g class="caption"><text class="caption node" text-anchor="middle" alignment-baseline="central" x="-269.05907414224805" y="-180.9556799343025" font-size="50px" font-family="'Gill Sans', 'Gill Sans MT', Calibri, sans-serif">Question</text></g><g class="caption"><text class="caption node" text-anchor="middle" alignment-baseline="central" x="-991.2633144235513" y="-383.3347840801992" font-size="50px" font-family="'Gill Sans', 'Gill Sans MT', Calibri, sans-serif">User</text></g><g class="caption"><text class="caption node" text-anchor="middle" alignment-baseline="central" x="-392.68027734561844" y="-765.3523872531183" font-size="50px" font-family="'Gill Sans', 'Gill Sans MT', Calibri, sans-serif">Answer</text></g><circle class="node node-id-4" r="62.829214001622255" fill="rgb(255, 255, 255)" stroke="rgb(0, 0, 0)" stroke-width="8px" cx="126.17137298583984" cy="-529.1702072143561"></circle><g class="caption"><text class="caption node" text-anchor="middle" alignment-baseline="central" x="126.17137298583984" y="-529.1702072143561" font-size="50px" font-family="'Gill Sans', 'Gill Sans MT', Calibri, sans-serif">Tag</text></g><circle class="node node-id-5" r="62.829214001622255" fill="rgb(255, 255, 255)" stroke="rgb(0, 0, 0)" stroke-width="8px" cx="481.3790031433107" cy="-180.9556799343025"></circle><g class="caption"><text class="caption node" text-anchor="middle" alignment-baseline="central" x="481.3790031433107" y="-180.9556799343025" font-size="50px" font-family="'Gill Sans', 'Gill Sans MT', Calibri, sans-serif">Tag</text></g></g><g class="layer properties"><g class="speech-bubble node-speech-bubble" transform="translate(-269.05907414224805,-63.72126641236001) "><path class="speech-bubble-outline" transform="scale(1,1) " d="M 0 0 L -10 20 L -262 20 A 10 10 0 0 0 -272 30 L -272 330 A 10 10 0 0 0 -262 340 L 262 340 A 10 10 0 0 0 272 330 L 272 30 A 10 10 0 0 0 262 20 L 10 20 Z" fill="rgb(255, 255, 255)" stroke="rgb(0, 0, 0)" stroke-width="3px"></path><text class="speech-bubble-content property-key" x="-84" y="55" alignment-baseline="central" text-anchor="end" font-size="50px" font-family="'Gill Sans', 'Gill Sans MT', Calibri, sans-serif">id: </text><text class="speech-bubble-content property-value" x="-84" y="55" alignment-baseline="central" font-size="50px" font-family="'Gill Sans', 'Gill Sans MT', Calibri, sans-serif">234234</text><text class="speech-bubble-content property-key" x="-84" y="105" alignment-baseline="central" text-anchor="end" font-size="50px" font-family="'Gill Sans', 'Gill Sans MT', Calibri, sans-serif">title: </text><text class="speech-bubble-content property-value" x="-84" y="105" alignment-baseline="central" font-size="50px" font-family="'Gill Sans', 'Gill Sans MT', Calibri, sans-serif">"A question"</text><text class="speech-bubble-content property-key" x="-84" y="155" alignment-baseline="central" text-anchor="end" font-size="50px" font-family="'Gill Sans', 'Gill Sans MT', Calibri, sans-serif">votes: </text><text class="speech-bubble-content property-value" x="-84" y="155" alignment-baseline="central" font-size="50px" font-family="'Gill Sans', 'Gill Sans MT', Calibri, sans-serif">[up, down]</text><text class="speech-bubble-content property-key" x="-84" y="205" alignment-baseline="central" text-anchor="end" font-size="50px" font-family="'Gill Sans', 'Gill Sans MT', Calibri, sans-serif">created: </text><text class="speech-bubble-content property-value" x="-84" y="205" alignment-baseline="central" font-size="50px" font-family="'Gill Sans', 'Gill Sans MT', Calibri, sans-serif">01-01-2014 1700</text><text class="speech-bubble-content property-key" x="-84" y="255" alignment-baseline="central" text-anchor="end" font-size="50px" font-family="'Gill Sans', 'Gill Sans MT', Calibri, sans-serif">stars: </text><text class="speech-bubble-content property-key" x="-84" y="305" alignment-baseline="central" text-anchor="end" font-size="50px" font-family="'Gill Sans', 'Gill Sans MT', Calibri, sans-serif">closed: </text><text class="speech-bubble-content property-value" x="-84" y="255" alignment-baseline="central" font-size="50px" font-family="'Gill Sans', 'Gill Sans MT', Calibri, sans-serif">2</text><text class="speech-bubble-content property-value" x="-84" y="305" alignment-baseline="central" font-size="50px" font-family="'Gill Sans', 'Gill Sans MT', Calibri, sans-serif">true</text></g><g class="speech-bubble node-speech-bubble" transform="translate(-1065.2724045814516,-383.3347840801992) "><path class="speech-bubble-outline" transform="scale(-1,1) " d="M 0 0 L 20 -10 L 20 -75 A 10 10 0 0 1 30 -85 L 320 -85 A 10 10 0 0 1 330 -75 L 330 75 A 10 10 0 0 1 320 85 L 30 85 A 10 10 0 0 1 20 75 L 20 10 Z" fill="rgb(255, 255, 255)" stroke="rgb(0, 0, 0)" stroke-width="3px"></path><text class="speech-bubble-content property-key" x="-180" y="-50" alignment-baseline="central" text-anchor="end" font-size="50px" font-family="'Gill Sans', 'Gill Sans MT', Calibri, sans-serif">name: </text><text class="speech-bubble-content property-value" x="-180" y="-50" alignment-baseline="central" font-size="50px" font-family="'Gill Sans', 'Gill Sans MT', Calibri, sans-serif">"User"</text><text class="speech-bubble-content property-key" x="-180" y="0" alignment-baseline="central" text-anchor="end" font-size="50px" font-family="'Gill Sans', 'Gill Sans MT', Calibri, sans-serif">id: </text><text class="speech-bubble-content property-value" x="-180" y="0" alignment-baseline="central" font-size="50px" font-family="'Gill Sans', 'Gill Sans MT', Calibri, sans-serif">234234</text><text class="speech-bubble-content property-key" x="-180" y="50" alignment-baseline="central" text-anchor="end" font-size="50px" font-family="'Gill Sans', 'Gill Sans MT', Calibri, sans-serif">rating: </text><text class="speech-bubble-content property-value" x="-180" y="50" alignment-baseline="central" font-size="50px" font-family="'Gill Sans', 'Gill Sans MT', Calibri, sans-serif">123213</text></g><g class="speech-bubble node-speech-bubble" transform="translate(-320.9904203769865,-837.0422442217503) "><path class="speech-bubble-outline" transform="scale(1,-1) " d="M 0 0 L 30 20 L 554 20 A 10 10 0 0 1 564 30 L 564 180 A 10 10 0 0 1 554 190 L 30 190 A 10 10 0 0 1 20 180 L 20 30 Z" fill="rgb(255, 255, 255)" stroke="rgb(0, 0, 0)" stroke-width="3px"></path><text class="speech-bubble-content property-key" x="208" y="-155" alignment-baseline="central" text-anchor="end" font-size="50px" font-family="'Gill Sans', 'Gill Sans MT', Calibri, sans-serif">id: </text><text class="speech-bubble-content property-value" x="208" y="-155" alignment-baseline="central" font-size="50px" font-family="'Gill Sans', 'Gill Sans MT', Calibri, sans-serif">32934</text><text class="speech-bubble-content property-key" x="208" y="-105" alignment-baseline="central" text-anchor="end" font-size="50px" font-family="'Gill Sans', 'Gill Sans MT', Calibri, sans-serif">votes: </text><text class="speech-bubble-content property-value" x="208" y="-105" alignment-baseline="central" font-size="50px" font-family="'Gill Sans', 'Gill Sans MT', Calibri, sans-serif">[up,down]</text><text class="speech-bubble-content property-key" x="208" y="-55" alignment-baseline="central" text-anchor="end" font-size="50px" font-family="'Gill Sans', 'Gill Sans MT', Calibri, sans-serif">created: </text><text class="speech-bubble-content property-value" x="208" y="-55" alignment-baseline="central" font-size="50px" font-family="'Gill Sans', 'Gill Sans MT', Calibri, sans-serif">01-01-2014 1700</text></g><g class="speech-bubble node-speech-bubble" transform="translate(126.17137298583984,-591.9994212159784) "><path class="speech-bubble-outline" transform="scale(1,-1) " d="M 0 0 L -10 20 L -121 20 A 10 10 0 0 0 -131 30 L -131 80 A 10 10 0 0 0 -121 90 L 121 90 A 10 10 0 0 0 131 80 L 131 30 A 10 10 0 0 0 121 20 L 10 20 Z" fill="rgb(255, 255, 255)" stroke="rgb(0, 0, 0)" stroke-width="3px"></path><text class="speech-bubble-content property-key" x="13" y="-55" alignment-baseline="central" text-anchor="end" font-size="50px" font-family="'Gill Sans', 'Gill Sans MT', Calibri, sans-serif">name: </text><text class="speech-bubble-content property-value" x="13" y="-55" alignment-baseline="central" font-size="50px" font-family="'Gill Sans', 'Gill Sans MT', Calibri, sans-serif">"Tag"</text></g></g><g class="layer overlay"><circle class="node overlay" r="121.2344135219425" stroke="none" fill="rgba(255, 255, 255, 0)" cx="-269.05907414224805" cy="-180.9556799343025"></circle><circle class="node overlay" r="78.00909015790026" stroke="none" fill="rgba(255, 255, 255, 0)" cx="-991.2633144235513" cy="-383.3347840801992"></circle><circle class="node overlay" r="105.38476800962664" stroke="none" fill="rgba(255, 255, 255, 0)" cx="-392.68027734561844" cy="-765.3523872531183"></circle><circle class="node ring" r="126.2344135219425" fill="none" stroke="rgba(255, 255, 255, 0)" stroke-width="10px" cx="-269.05907414224805" cy="-180.9556799343025"></circle><circle class="node ring" r="83.00909015790026" fill="none" stroke="rgba(255, 255, 255, 0)" stroke-width="10px" cx="-991.2633144235513" cy="-383.3347840801992"></circle><circle class="node ring" r="110.38476800962664" fill="none" stroke="rgba(255, 255, 255, 0)" stroke-width="10px" cx="-392.68027734561844" cy="-765.3523872531183"></circle><path class="relationship overlay" fill="rgba(255, 255, 255, 0)" stroke="rgba(255, 255, 255, 0)" stroke-width="10px" transform="translate(-991.2633144235513,-383.3347840801992) rotate(15.654157492871073)" d="M 87.07726038220096,-18.872436383985733 L 88.41906504204945,-10.985766601700636 A 1632.9841436782922 1632.9841436782922 0 0 1 586.7991427215624,-18.61533466475354 L 585.1494988212138,-6.729264035565661 L 619.0452123661796,-18.178307806886696 L 589.5485492221434,-38.42545238006667 L 587.8989053217948,-26.539381750878796 A 1640.9841436782922 1640.9841436782922 0 0 0 87.07726038220096,-18.872436383985733"></path><path class="relationship overlay" fill="rgba(255, 255, 255, 0)" stroke="rgba(255, 255, 255, 0)" stroke-width="10px" transform="translate(-991.2633144235513,-383.3347840801992) rotate(15.654157492871073)" d="M 87.07726038220096,18.872436383985743 L 88.41906504204945,10.985766601700647 A 1632.9841436782904 1632.9841436782904 0 0 0 586.7991427215624,18.615334664753558 L 585.1494988212138,6.729264035565677 L 619.0452123661796,18.178307806886714 L 589.5485492221434,38.425452380066695 L 587.8989053217948,26.539381750878814 A 1640.9841436782904 1640.9841436782904 0 0 1 87.07726038220096,18.872436383985743"></path><path class="relationship overlay" fill="rgba(255, 255, 255, 0)" stroke="rgba(255, 255, 255, 0)" stroke-width="10px" transform="translate(-392.68027734561844,-765.3523872531183) rotate(78.05593328304464)" d="M 116.38476800962664 4 L 433.09440162639993 4 L 433.09440162639993 16 L 465.09440162639993 0 L 433.09440162639993 -16 L 433.09440162639993 -4 L 116.38476800962664 -4 Z"></path><path class="relationship overlay" fill="rgba(255, 255, 255, 0)" stroke="rgba(255, 255, 255, 0)" stroke-width="10px" transform="translate(-991.2633144235513,-383.3347840801992) rotate(-32.546148800675276)" d="M 87.07726038220096,-18.872436383985733 L 88.41906504204945,-10.985766601700636 A 1530.5055043966274 1530.5055043966274 0 0 1 562.651024126871,-17.130173462582064 L 560.9454932581909,-5.2519932797434645 L 594.8946815706672,-16.54148454038159 L 565.493575574671,-36.92714043397973 L 563.788044705991,-25.048960251141132 A 1538.5055043966274 1538.5055043966274 0 0 0 87.07726038220096,-18.872436383985733"></path><circle class="node overlay" r="66.82921400162226" stroke="none" fill="rgba(255, 255, 255, 0)" cx="126.17137298583984" cy="-529.1702072143561"></circle><circle class="node ring" r="71.82921400162226" fill="none" stroke="rgba(255, 255, 255, 0)" stroke-width="10px" cx="126.17137298583984" cy="-529.1702072143561"></circle><path class="relationship overlay" fill="rgba(255, 255, 255, 0)" stroke="rgba(255, 255, 255, 0)" stroke-width="10px" transform="translate(-991.2633144235513,-383.3347840801992) rotate(-32.546148800675276)" d="M 87.07726038220096,18.872436383985743 L 88.41906504204945,10.985766601700647 A 1530.5055043966263 1530.5055043966263 0 0 0 562.651024126871,17.13017346258208 L 560.9454932581909,5.2519932797434805 L 594.8946815706672,16.541484540381603 L 565.493575574671,36.927140433979744 L 563.788044705991,25.048960251141146 A 1538.5055043966263 1538.5055043966263 0 0 1 87.07726038220096,18.872436383985743"></path><path class="relationship overlay" fill="rgba(255, 255, 255, 0)" stroke="rgba(255, 255, 255, 0)" stroke-width="10px" transform="translate(-269.05907414224805,-180.9556799343025) rotate(-41.381398393176106)" d="M 132.23441352194249 4 L 416.9159457729497 4 L 416.9159457729497 16 L 448.9159457729497 0 L 416.9159457729497 -16 L 416.9159457729497 -4 L 132.23441352194249 -4 Z"></path><circle class="node overlay" r="66.82921400162226" stroke="none" fill="rgba(255, 255, 255, 0)" cx="481.3790031433107" cy="-180.9556799343025"></circle><circle class="node ring" r="71.82921400162226" fill="none" stroke="rgba(255, 255, 255, 0)" stroke-width="10px" cx="481.3790031433107" cy="-180.9556799343025"></circle><path class="relationship overlay" fill="rgba(255, 255, 255, 0)" stroke="rgba(255, 255, 255, 0)" stroke-width="10px" transform="translate(126.17137298583984,-529.1702072143561) rotate(44.430410206775726)" d="M 77.82921400162226 4 L 387.5899427776052 4 L 387.5899427776052 16 L 419.5899427776052 0 L 387.5899427776052 -16 L 387.5899427776052 -4 L 77.82921400162226 -4 Z"></path></g></svg>